<svg width="264" height="34" viewBox="0 0 264 34" fill="none" xmlns="http://www.w3.org/2000/svg">
<path d="M14.744 15.912H20.216C20.216 13.512 18.2 8.51998 10.616 8.51998C3.608 8.51998 1.112 12.072 1.112 15.816C1.112 24.936 15.32 21.384 15.32 26.136C15.32 28.152 13.784 29.16 11.144 29.16C7.544 29.16 6.296 27.192 5.912 25.32H0.440002C0.440002 28.2 2.12 33.48 10.712 33.48C17.336 33.48 20.6 29.976 20.6 25.464C20.6 16.152 6.392 19.128 6.392 15.096C6.392 13.848 7.352 12.6 10.136 12.6C13.016 12.6 14.84 13.752 14.744 15.912Z" fill="#E85A0B"/>
<path d="M23.9825 21.192C23.9825 27.24 27.8225 33.48 35.5025 33.48C43.1825 33.48 47.0225 27.24 47.0225 21.192C47.0225 14.712 42.7025 8.51998 35.5025 8.51998C28.3025 8.51998 23.9825 14.712 23.9825 21.192ZM41.7425 21C41.7425 25.608 39.1985 28.2 35.5025 28.2C31.8065 28.2 29.2625 25.608 29.2625 21C29.2625 16.68 31.7105 13.8 35.5025 13.8C39.2945 13.8 41.7425 16.68 41.7425 21Z" fill="#E85A0B"/>
<path d="M66.6819 14.568L66.9699 9.28798C65.9139 8.80798 64.5699 8.51998 63.1299 8.51998C60.0579 8.51998 58.4259 10.056 57.0819 11.688V8.99999H51.8019V33H57.2739V20.952C57.2739 15.144 59.3379 13.704 62.8419 13.704C64.6659 13.704 65.5779 14.088 66.6819 14.568Z" fill="#E85A0B"/>
<path d="M67.8519 21.192C67.8519 27.72 72.3639 33.48 79.3719 33.48C86.5719 33.48 89.6439 28.104 89.9319 24.84H84.6519C84.1719 25.896 83.0199 28.2 79.3239 28.2C76.1079 28.2 73.6119 26.424 73.1799 22.248H90.2199C89.8839 13.32 85.7079 8.51998 78.9879 8.51998C72.2679 8.51998 67.8519 14.712 67.8519 21.192ZM79.1799 12.84C82.2519 12.84 84.2199 14.52 84.5559 17.448H73.5639C74.4279 14.232 76.6359 12.84 79.1799 12.84Z" fill="#E85A0B"/>
<path d="M94.6456 0.359985V33H100.118V23.304L103.094 20.52L109.142 33H115.286L106.934 16.92L115.286 8.99999H108.662L100.118 17.304V0.359985H94.6456Z" fill="#E85A0B"/>
<path d="M137.719 25.944V16.152C137.719 10.968 133.11 8.51998 127.686 8.51998C121.782 8.51998 117.174 11.496 117.174 16.68H123.031C123.031 13.848 124.566 12.36 127.542 12.36C130.422 12.36 132.439 14.088 132.439 16.68V17.832H127.831C121.207 17.832 116.599 20.04 116.599 25.512C116.599 29.736 120.63 33.48 126.007 33.48C130.231 33.48 132.631 31.464 133.495 30.792C134.599 32.664 135.991 33.288 138.919 33.288C139.783 33.288 140.647 33.24 142.327 33V27.72C141.415 27.912 140.791 28.008 140.167 28.008C138.679 28.008 137.719 27.384 137.719 25.944ZM122.55 26.088C122.55 23.496 124.087 21.576 132.439 21.96V24.36C132.439 26.28 130.71 29.64 126.774 29.64C124.182 29.64 122.55 28.008 122.55 26.088Z" fill="#E85A0B"/>
<path d="M159.588 14.568L159.876 9.28798C158.82 8.80798 157.476 8.51998 156.036 8.51998C152.964 8.51998 151.332 10.056 149.988 11.688V8.99999H144.708V33H150.18V20.952C150.18 15.144 152.244 13.704 155.748 13.704C157.572 13.704 158.484 14.088 159.588 14.568Z" fill="#E85A0B"/>
<path d="M182.672 25.944V16.152C182.672 10.968 178.064 8.51998 172.64 8.51998C166.736 8.51998 162.128 11.496 162.128 16.68H167.984C167.984 13.848 169.52 12.36 172.496 12.36C175.376 12.36 177.392 14.088 177.392 16.68V17.832H172.784C166.16 17.832 161.552 20.04 161.552 25.512C161.552 29.736 165.584 33.48 170.96 33.48C175.184 33.48 177.584 31.464 178.448 30.792C179.552 32.664 180.944 33.288 183.872 33.288C184.736 33.288 185.6 33.24 187.28 33V27.72C186.368 27.912 185.744 28.008 185.12 28.008C183.632 28.008 182.672 27.384 182.672 25.944ZM167.504 26.088C167.504 23.496 169.04 21.576 177.392 21.96V24.36C177.392 26.28 175.664 29.64 171.728 29.64C169.136 29.64 167.504 28.008 167.504 26.088Z" fill="#E85A0B"/>
<path d="M205.264 28.372H206.746C206.746 27.722 206.2 26.37 204.146 26.37C202.248 26.37 201.572 27.332 201.572 28.346C201.572 30.816 205.42 29.854 205.42 31.141C205.42 31.687 205.004 31.96 204.289 31.96C203.314 31.96 202.976 31.427 202.872 30.92H201.39C201.39 31.7 201.845 33.13 204.172 33.13C205.966 33.13 206.85 32.181 206.85 30.959C206.85 28.437 203.002 29.243 203.002 28.151C203.002 27.813 203.262 27.475 204.016 27.475C204.796 27.475 205.29 27.787 205.264 28.372Z" fill="#E85A0B"/>
<path d="M207.766 29.802C207.766 31.44 208.806 33.13 210.886 33.13C212.966 33.13 214.006 31.44 214.006 29.802C214.006 28.047 212.836 26.37 210.886 26.37C208.936 26.37 207.766 28.047 207.766 29.802ZM212.576 29.75C212.576 30.998 211.887 31.7 210.886 31.7C209.885 31.7 209.196 30.998 209.196 29.75C209.196 28.58 209.859 27.8 210.886 27.8C211.913 27.8 212.576 28.58 212.576 29.75Z" fill="#E85A0B"/>
<path d="M214.807 30.335H218.798V29.165H214.807V30.335Z" fill="#E85A0B"/>
<path d="M223.888 28.008L223.966 26.578C223.68 26.448 223.316 26.37 222.926 26.37C222.094 26.37 221.652 26.786 221.288 27.228V26.5H219.858V33H221.34V29.737C221.34 28.164 221.899 27.774 222.848 27.774C223.342 27.774 223.589 27.878 223.888 28.008Z" fill="#E85A0B"/>
<path d="M224.205 29.802C224.205 31.57 225.427 33.13 227.325 33.13C229.275 33.13 230.107 31.674 230.185 30.79H228.755C228.625 31.076 228.313 31.7 227.312 31.7C226.441 31.7 225.765 31.219 225.648 30.088H230.263C230.172 27.67 229.041 26.37 227.221 26.37C225.401 26.37 224.205 28.047 224.205 29.802ZM227.273 27.54C228.105 27.54 228.638 27.995 228.729 28.788H225.752C225.986 27.917 226.584 27.54 227.273 27.54Z" fill="#E85A0B"/>
<path d="M234.318 24.16V33H235.8V30.374L236.606 29.62L238.244 33H239.908L237.646 28.645L239.908 26.5H238.114L235.8 28.749V24.16H234.318Z" fill="#E85A0B"/>
<path d="M245.984 31.089V28.437C245.984 27.033 244.736 26.37 243.267 26.37C241.668 26.37 240.42 27.176 240.42 28.58H242.006C242.006 27.813 242.422 27.41 243.228 27.41C244.008 27.41 244.554 27.878 244.554 28.58V28.892H243.306C241.512 28.892 240.264 29.49 240.264 30.972C240.264 32.116 241.356 33.13 242.812 33.13C243.956 33.13 244.606 32.584 244.84 32.402C245.139 32.909 245.516 33.078 246.309 33.078C246.543 33.078 246.777 33.065 247.232 33V31.57C246.985 31.622 246.816 31.648 246.647 31.648C246.244 31.648 245.984 31.479 245.984 31.089ZM241.876 31.128C241.876 30.426 242.292 29.906 244.554 30.01V30.66C244.554 31.18 244.086 32.09 243.02 32.09C242.318 32.09 241.876 31.648 241.876 31.128Z" fill="#E85A0B"/>
<path d="M247.383 30.335H251.374V29.165H247.383V30.335Z" fill="#E85A0B"/>
<path d="M256.464 28.008L256.542 26.578C256.256 26.448 255.892 26.37 255.502 26.37C254.67 26.37 254.228 26.786 253.864 27.228V26.5H252.434V33H253.916V29.737C253.916 28.164 254.475 27.774 255.424 27.774C255.918 27.774 256.165 27.878 256.464 28.008Z" fill="#E85A0B"/>
<path d="M262.716 31.089V28.437C262.716 27.033 261.468 26.37 259.999 26.37C258.4 26.37 257.152 27.176 257.152 28.58H258.738C258.738 27.813 259.154 27.41 259.96 27.41C260.74 27.41 261.286 27.878 261.286 28.58V28.892H260.038C258.244 28.892 256.996 29.49 256.996 30.972C256.996 32.116 258.088 33.13 259.544 33.13C260.688 33.13 261.338 32.584 261.572 32.402C261.871 32.909 262.248 33.078 263.041 33.078C263.275 33.078 263.509 33.065 263.964 33V31.57C263.717 31.622 263.548 31.648 263.379 31.648C262.976 31.648 262.716 31.479 262.716 31.089ZM258.608 31.128C258.608 30.426 259.024 29.906 261.286 30.01V30.66C261.286 31.18 260.818 32.09 259.752 32.09C259.05 32.09 258.608 31.648 258.608 31.128Z" fill="#E85A0B"/>
<path d="M207.136 17.089V14.437C207.136 13.033 205.888 12.37 204.419 12.37C202.82 12.37 201.572 13.176 201.572 14.58H203.158C203.158 13.813 203.574 13.41 204.38 13.41C205.16 13.41 205.706 13.878 205.706 14.58V14.892H204.458C202.664 14.892 201.416 15.49 201.416 16.972C201.416 18.116 202.508 19.13 203.964 19.13C205.108 19.13 205.758 18.584 205.992 18.402C206.291 18.909 206.668 19.078 207.461 19.078C207.695 19.078 207.929 19.065 208.384 19V17.57C208.137 17.622 207.968 17.648 207.799 17.648C207.396 17.648 207.136 17.479 207.136 17.089ZM203.028 17.128C203.028 16.426 203.444 15.906 205.706 16.01V16.66C205.706 17.18 205.238 18.09 204.172 18.09C203.47 18.09 203.028 17.648 203.028 17.128Z" fill="#E85A0B"/>
<path d="M214.424 19V14.398C214.424 12.968 213.462 12.37 212.331 12.37C211.668 12.37 210.992 12.604 210.459 13.02V12.5H209.029V19H210.511V15.36C210.511 14.658 210.758 13.735 211.811 13.735C212.474 13.735 212.942 14.099 212.942 14.71V19H214.424Z" fill="#E85A0B"/>
<path d="M221.811 19V10.16H220.381V12.968C220.069 12.76 219.523 12.37 218.587 12.37C216.689 12.37 215.675 13.93 215.675 15.802C215.675 17.466 216.741 19.13 218.639 19.13C219.575 19.13 220.147 18.636 220.433 18.428V19H221.811ZM217.105 15.75C217.105 14.372 217.846 13.8 218.795 13.8C219.744 13.8 220.433 14.45 220.433 15.75C220.433 17.05 219.77 17.7 218.795 17.7C217.82 17.7 217.105 17.05 217.105 15.75Z" fill="#E85A0B"/>
<path d="M226.491 10.16V12.5H225.711V13.93H226.491V17.908C226.491 18.532 226.907 19.13 227.895 19.13C228.493 19.13 228.805 19.013 228.922 18.974V17.674C228.831 17.726 228.675 17.778 228.441 17.778C228.181 17.778 227.921 17.674 227.921 17.284V13.93H228.831V12.5H227.921V10.16H226.491Z" fill="#E85A0B"/>
<path d="M235.434 19V14.398C235.434 12.968 234.472 12.37 233.341 12.37C232.301 12.37 231.703 12.786 231.469 13.02V10.16H230.091V19H231.521V15.49C231.521 14.71 231.768 13.592 232.821 13.592C233.458 13.592 233.952 13.982 233.952 14.71V19H235.434Z" fill="#E85A0B"/>
<path d="M236.621 15.802C236.621 17.57 237.843 19.13 239.741 19.13C241.691 19.13 242.523 17.674 242.601 16.79H241.171C241.041 17.076 240.729 17.7 239.728 17.7C238.857 17.7 238.181 17.219 238.064 16.088H242.679C242.588 13.67 241.457 12.37 239.637 12.37C237.817 12.37 236.621 14.047 236.621 15.802ZM239.689 13.54C240.521 13.54 241.054 13.995 241.145 14.788H238.168C238.402 13.917 239 13.54 239.689 13.54Z" fill="#E85A0B"/>
<path d="M249.273 19V14.398C249.273 12.968 248.311 12.37 247.18 12.37C246.517 12.37 245.841 12.604 245.308 13.02V12.5H243.878V19H245.36V15.36C245.36 14.658 245.607 13.735 246.66 13.735C247.323 13.735 247.791 14.099 247.791 14.71V19H249.273Z" fill="#E85A0B"/>
</svg>
