<svg width="203" height="213" viewBox="0 0 203 213" fill="none" xmlns="http://www.w3.org/2000/svg">
<path d="M64.1579 199.92L59.1813 197.645C58.1834 199.827 57.9412 205.205 64.8385 208.359C71.2119 211.273 74.9589 209.08 76.5156 205.675C80.3078 197.381 65.9093 194.704 67.8852 190.382C68.7235 188.549 70.5395 188.271 72.9405 189.368C76.2145 190.865 76.5312 193.174 76.1021 195.036L81.0786 197.311C82.2761 194.692 82.9437 189.192 75.1296 185.619C69.1054 182.865 64.68 184.694 62.8039 188.798C58.9319 197.267 73.0909 200.468 71.4143 204.135C70.8954 205.27 69.5034 206.006 66.9715 204.848C64.3523 203.65 63.1724 201.844 64.1579 199.92Z" fill="#E85A0B"/>
<path d="M21.2092 159.422C26.9293 157.457 31.5838 151.799 29.0893 144.535C26.5949 137.272 19.446 135.666 13.7259 137.631C7.59719 139.736 3.14403 145.833 5.48259 152.642C7.82114 159.452 15.0806 161.526 21.2092 159.422ZM15.2592 142.687C19.6174 141.19 22.8951 142.754 24.0956 146.25C25.2961 149.746 23.6709 152.994 19.3127 154.49C15.2269 155.893 11.708 154.514 10.4763 150.927C9.24468 147.341 11.1734 144.09 15.2592 142.687Z" fill="#E85A0B"/>
<path d="M12.247 69.5884L7.52861 67.2013C6.66446 67.9751 5.86026 69.0898 5.28114 70.4082C4.04569 73.2208 4.79566 75.3328 5.74936 77.2196L3.28831 76.1386L1.16488 80.9728L23.1385 90.6248L25.3391 85.6148L14.3084 80.7695C8.99077 78.4337 8.50243 75.9649 9.91162 72.7567C10.6452 71.0867 11.3635 70.4062 12.247 69.5884Z" fill="#E85A0B"/>
<path d="M45.2879 36.1438C47.9827 42.0896 54.47 45.4733 60.8531 42.5804C67.411 39.6082 67.9897 33.4435 66.9047 30.3517L62.0955 32.5313C62.0943 33.6913 61.9961 36.2654 58.6297 37.7911C55.7005 39.1187 52.694 38.5314 50.5766 34.9062L66.097 27.872C62.1054 19.8789 56.3204 17.2308 50.1997 20.0049C44.079 22.7789 42.6129 30.2417 45.2879 36.1438ZM52.1579 23.8604C54.9559 22.5922 57.4419 23.31 58.9566 25.8382L48.9449 30.3757C48.4043 27.0899 49.8408 24.9105 52.1579 23.8604Z" fill="#E85A0B"/>
<path d="M125.687 0.697876L113.812 31.1013L118.91 33.092L122.437 24.0604L126.222 22.5498L127.315 36.3749L133.038 38.6101L131.108 20.5935L141.769 16.2546L135.599 13.8448L124.62 18.4715L130.784 2.68857L125.687 0.697876Z" fill="#E85A0B"/>
<path d="M180.61 78.8677L189.676 75.1694C194.476 73.2116 195.003 68.0203 192.954 62.998C190.724 57.5313 186.228 54.3885 181.428 56.3464L183.64 61.7687C186.262 60.6991 188.22 61.5594 189.344 64.315C190.432 66.9817 189.593 69.501 187.193 70.4799L186.127 70.915L184.386 66.6483C181.885 60.5149 178.1 57.0821 173.033 59.1487C169.122 60.744 167.178 65.8914 169.208 70.8692C170.804 74.7804 173.577 76.2413 174.525 76.7875C173.209 78.5167 173.157 80.0413 174.263 82.7524C174.589 83.5524 174.96 84.3343 175.816 85.7993L180.705 83.8051C180.183 83.0332 179.859 82.4917 179.623 81.9139C179.061 80.5361 179.276 79.4115 180.61 78.8677ZM174.748 64.8774C177.148 63.8985 179.506 64.5956 182.304 72.474L180.082 73.3805C178.304 74.1056 174.54 73.7746 173.054 70.1301C172.075 67.7301 172.97 65.6026 174.748 64.8774Z" fill="#E85A0B"/>
<path d="M191.198 147.057L196.043 149.174C196.862 148.353 197.602 147.194 198.106 145.845C199.181 142.967 198.313 140.901 197.254 139.071L199.772 140.012L201.619 135.065L179.136 126.669L177.222 131.795L188.508 136.01C193.949 138.042 194.576 140.479 193.35 143.762C192.712 145.471 192.033 146.191 191.198 147.057Z" fill="#E85A0B"/>
<path d="M139.011 187.965L143.434 196.701C145.776 201.326 150.993 201.428 155.832 198.978C161.099 196.311 163.866 191.574 161.524 186.949L156.3 189.595C157.579 192.121 156.881 194.143 154.226 195.487C151.656 196.788 149.077 196.157 147.906 193.845L147.386 192.817L151.497 190.735C157.406 187.743 160.52 183.692 158.048 178.81C156.14 175.041 150.851 173.522 146.055 175.951C142.287 177.859 141.056 180.742 140.589 181.732C138.758 180.56 137.235 180.633 134.623 181.955C133.852 182.346 133.103 182.779 131.712 183.752L134.097 188.462C134.824 187.879 135.338 187.512 135.894 187.23C137.222 186.557 138.36 186.68 139.011 187.965ZM152.478 180.985C153.649 183.297 153.146 185.704 145.521 189.134L144.437 186.993C143.569 185.28 143.593 181.502 147.105 179.724C149.417 178.553 151.61 179.272 152.478 180.985Z" fill="#E85A0B"/>
</svg>
