<svg width="285" height="112" viewBox="0 0 285 112" fill="none" xmlns="http://www.w3.org/2000/svg">
<path d="M13.9787 90.6212L16.7585 85.9079C14.6913 84.6887 9.36726 83.8892 5.51452 90.4217C1.9544 96.458 3.74594 100.412 6.97084 102.314C14.8264 106.947 18.9846 92.9049 23.0778 95.319C24.8143 96.3431 24.9022 98.1782 23.5611 100.452C21.7322 103.553 19.4031 103.628 17.5956 103.008L14.8158 107.721C17.2964 109.184 22.6978 110.42 27.0626 103.019C30.4277 97.3133 29.0677 92.7218 25.1812 90.4296C17.1603 85.6991 12.5059 99.449 9.03295 97.4007C7.95798 96.7667 7.3707 95.3058 8.785 92.9078C10.2481 90.4271 12.1669 89.4412 13.9787 90.6212Z" fill="#E85A0B"/>
<path d="M35.3694 69.0006C39.3916 73.5173 46.4092 75.6235 52.1446 70.5158C57.88 65.4082 56.5978 58.1944 52.5755 53.6778C48.266 48.8386 40.9218 47.0874 35.5449 51.8758C30.168 56.6642 31.0598 64.1614 35.3694 69.0006ZM48.5048 57.0459C51.5693 60.4871 51.3933 64.1147 48.6331 66.5728C45.873 69.0308 42.2493 68.787 39.1847 65.3458C36.3117 62.1196 36.2245 58.3408 39.0564 55.8189C41.8882 53.297 45.6317 53.8197 48.5048 57.0459Z" fill="#E85A0B"/>
<path d="M83.6148 27.404L81.6135 22.5095C80.4537 22.5281 79.1158 22.8435 77.8146 23.4603C75.0387 24.7762 74.2219 26.8632 73.7065 28.9135L72.5551 26.4846L67.784 28.7462L78.0639 50.4331L83.0086 48.0893L77.848 37.2025C75.3603 31.9542 76.6086 29.7689 79.7749 28.2681C81.4231 27.4868 82.4116 27.4431 83.6148 27.404Z" fill="#E85A0B"/>
<path d="M105.327 26.037C106.385 32.4787 111.771 37.4311 118.687 36.2952C125.791 35.1281 127.951 29.3252 127.706 26.0577L122.496 26.9136C122.194 28.0334 121.43 30.4937 117.783 31.0928C114.61 31.6141 111.859 30.2661 110.756 26.2154L127.57 23.4533C125.792 14.6978 120.893 10.6382 114.262 11.7275C107.631 12.8168 104.277 19.6427 105.327 26.037ZM115.151 15.9592C118.183 15.4613 120.397 16.8001 121.203 19.6349L110.357 21.4166C110.688 18.1031 112.641 16.3716 115.151 15.9592Z" fill="#E85A0B"/>
<path d="M155.049 0.66394L150.415 32.9733L155.831 33.7502L157.208 24.1524L160.549 21.8192L164.764 35.0314L170.845 35.9037L164.861 18.8008L174.253 12.1469L167.696 11.2064L158.06 18.2132L160.465 1.44085L155.049 0.66394Z" fill="#E85A0B"/>
<path d="M210.276 42.7829L214.56 33.9778C216.828 29.3162 213.755 25.0989 208.878 22.7259C203.569 20.1429 198.123 20.803 195.855 25.4645L201.121 28.0265C202.36 25.4799 204.392 24.8139 207.068 26.1159C209.658 27.3759 210.715 29.8118 209.581 32.1425L209.077 33.1784L204.933 31.1624C198.977 28.2644 193.867 28.2339 191.473 33.1544C189.625 36.9527 191.613 42.0833 196.447 44.4354C200.246 46.2834 203.286 45.5206 204.357 45.2943C204.53 47.4606 205.509 48.6307 208.142 49.9118C208.919 50.2898 209.717 50.6246 211.332 51.1438L213.642 46.3959C212.738 46.1696 212.135 45.9829 211.574 45.7099C210.236 45.0589 209.646 44.0778 210.276 42.7829ZM196.574 36.2763C197.708 33.9456 199.929 32.8911 207.271 36.8904L206.221 39.0485C205.381 40.775 202.357 43.0404 198.818 41.3184C196.487 40.1844 195.734 38.0028 196.574 36.2763Z" fill="#E85A0B"/>
<path d="M250.536 58.2225L254.301 54.5091C253.842 53.4436 253.041 52.3265 251.976 51.3579C249.702 49.2917 247.462 49.3306 245.369 49.6342L247.177 47.6451L243.27 44.0937L227.127 61.8535L231.177 65.534L239.28 56.6186C243.187 52.3208 245.683 52.6435 248.276 55.0003C249.625 56.2272 250.042 57.1248 250.536 58.2225Z" fill="#E85A0B"/>
<path d="M267.052 98.1935L275.409 93.091C279.834 90.3896 279.522 85.181 276.695 80.5517C273.619 75.5126 268.678 73.1305 264.253 75.8318L267.305 80.8299C269.722 79.3542 271.792 79.8898 273.343 82.4298C274.844 84.8878 274.419 87.5089 272.207 88.8596L271.224 89.4599L268.823 85.527C265.371 79.8734 261.085 77.0911 256.415 79.9425C252.81 82.1436 251.715 87.5359 254.517 92.1243C256.718 95.7295 259.689 96.7274 260.713 97.1146C259.69 99.0324 259.883 100.546 261.409 103.045C261.859 103.782 262.35 104.494 263.431 105.803L267.937 103.052C267.298 102.374 266.891 101.891 266.566 101.358C265.79 100.088 265.823 98.9439 267.052 98.1935ZM259.025 85.3227C261.237 83.972 263.676 84.2825 267.701 91.611L265.652 92.8616C264.014 93.8621 260.245 94.1382 258.194 90.7788C256.844 88.5665 257.386 86.3232 259.025 85.3227Z" fill="#E85A0B"/>
</svg>
